# xmcd CD database file
# Copyright (C) 1996 Ti Kan
#
# Track frame offsets:
#  150
#  13290
#  26950
#  41385
#  56100
#  67817
#  80037
#  92900
#  104455
#  114327
#  127055
#  141742
#
# Disc length: 2103 seconds
#
# Revision: 1
# Processed by: cddbd v1.4b41PL1 Copyright (c) Steve Scherf et al.
# Submitted via: CDWizzard Release:4.14
#
DISCID=b208350c
DTITLE=Pat McGrath (Producer and Arranger) - Smoky Mountain Hyms Vol 4
DYEAR=1900
DGENRE=
TTITLE0='Tis So Sweet to Trust in Jesus
TTITLE1=No, Not One
TTITLE2=He Leadeth Me
TTITLE3=Precious Lord, Take My Hand
TTITLE4=Peace Like a River
TTITLE5=Stand Up, Stand Up for Jesus
TTITLE6=Shall We Gather at the River
TTITLE7=Blessed Be the Name
TTITLE8=Do Lord
TTITLE9=Battle Hymn of the Republic
TTITLE10=I'll Meet You in the Morning
TTITLE11=I Feel Like Travelin' On
EXTD=Features the hammered dulcimer, mandolin, fiddle, dobro, banjo, guit
EXTD=ar and acoustic bass.
EXTT0=
EXTT1=
EXTT2=
EXTT3=
EXTT4=
EXTT5=
EXTT6=
EXTT7=
EXTT8=
EXTT9=
EXTT10=
EXTT11=
PLAYORDER=
